<mxfile host="app.diagrams.net" modified="2023-11-24T04:28:14.724Z" agent="Mozilla/5.0 (Macintosh; Intel Mac OS X 10_15_7) AppleWebKit/605.1.15 (KHTML, like Gecko) Version/17.1 Safari/605.1.15" etag="vNDEPmOsgIcIXS96_Hiz" version="22.1.3" type="device">
  <diagram name="Страница — 1" id="yzS94LT6goUIkw-oyW69">
    <mxGraphModel dx="2405" dy="2234" grid="1" gridSize="10" guides="1" tooltips="1" connect="1" arrows="1" fold="1" page="1" pageScale="1" pageWidth="827" pageHeight="1169" math="0" shadow="0">
      <root>
        <mxCell id="0" />
        <mxCell id="1" parent="0" />
        <mxCell id="NaQXFfpHUo3TirxvX6qb-3" style="edgeStyle=orthogonalEdgeStyle;rounded=0;orthogonalLoop=1;jettySize=auto;html=1;" edge="1" parent="1" source="NaQXFfpHUo3TirxvX6qb-1" target="NaQXFfpHUo3TirxvX6qb-2">
          <mxGeometry relative="1" as="geometry" />
        </mxCell>
        <mxCell id="NaQXFfpHUo3TirxvX6qb-1" value="Пользователь" style="shape=umlActor;verticalLabelPosition=bottom;verticalAlign=top;html=1;outlineConnect=0;" vertex="1" parent="1">
          <mxGeometry x="20" y="280" width="30" height="60" as="geometry" />
        </mxCell>
        <mxCell id="NaQXFfpHUo3TirxvX6qb-7" style="edgeStyle=orthogonalEdgeStyle;rounded=0;orthogonalLoop=1;jettySize=auto;html=1;" edge="1" parent="1" source="NaQXFfpHUo3TirxvX6qb-2" target="NaQXFfpHUo3TirxvX6qb-6">
          <mxGeometry relative="1" as="geometry" />
        </mxCell>
        <mxCell id="NaQXFfpHUo3TirxvX6qb-2" value="Запуск приложения" style="ellipse;whiteSpace=wrap;html=1;" vertex="1" parent="1">
          <mxGeometry x="200" y="270" width="120" height="80" as="geometry" />
        </mxCell>
        <mxCell id="NaQXFfpHUo3TirxvX6qb-20" style="rounded=0;orthogonalLoop=1;jettySize=auto;html=1;" edge="1" parent="1" source="NaQXFfpHUo3TirxvX6qb-6" target="NaQXFfpHUo3TirxvX6qb-19">
          <mxGeometry relative="1" as="geometry" />
        </mxCell>
        <mxCell id="NaQXFfpHUo3TirxvX6qb-38" style="rounded=0;orthogonalLoop=1;jettySize=auto;html=1;" edge="1" parent="1" source="NaQXFfpHUo3TirxvX6qb-6" target="NaQXFfpHUo3TirxvX6qb-23">
          <mxGeometry relative="1" as="geometry" />
        </mxCell>
        <mxCell id="NaQXFfpHUo3TirxvX6qb-6" value="Открытие главного окна" style="ellipse;whiteSpace=wrap;html=1;" vertex="1" parent="1">
          <mxGeometry x="440" y="270" width="120" height="80" as="geometry" />
        </mxCell>
        <mxCell id="NaQXFfpHUo3TirxvX6qb-16" style="rounded=0;orthogonalLoop=1;jettySize=auto;html=1;endArrow=none;endFill=0;startArrow=classic;startFill=1;" edge="1" parent="1" source="NaQXFfpHUo3TirxvX6qb-14" target="NaQXFfpHUo3TirxvX6qb-6">
          <mxGeometry relative="1" as="geometry" />
        </mxCell>
        <mxCell id="NaQXFfpHUo3TirxvX6qb-29" style="rounded=0;orthogonalLoop=1;jettySize=auto;html=1;" edge="1" parent="1" source="NaQXFfpHUo3TirxvX6qb-14" target="NaQXFfpHUo3TirxvX6qb-27">
          <mxGeometry relative="1" as="geometry" />
        </mxCell>
        <mxCell id="NaQXFfpHUo3TirxvX6qb-40" style="rounded=0;orthogonalLoop=1;jettySize=auto;html=1;" edge="1" parent="1" source="NaQXFfpHUo3TirxvX6qb-14" target="NaQXFfpHUo3TirxvX6qb-39">
          <mxGeometry relative="1" as="geometry" />
        </mxCell>
        <mxCell id="NaQXFfpHUo3TirxvX6qb-14" value="Отображение сводных таблиц о компонентах устройства" style="swimlane;whiteSpace=wrap;html=1;startSize=60;" vertex="1" parent="1">
          <mxGeometry x="880" y="-120" width="200" height="260" as="geometry" />
        </mxCell>
        <mxCell id="NaQXFfpHUo3TirxvX6qb-8" value="Отображение характеристик компонентов устройства" style="ellipse;whiteSpace=wrap;html=1;" vertex="1" parent="NaQXFfpHUo3TirxvX6qb-14">
          <mxGeometry x="40" y="70" width="120" height="80" as="geometry" />
        </mxCell>
        <mxCell id="NaQXFfpHUo3TirxvX6qb-10" value="Отображение числовых данных о компонентах устройства" style="ellipse;whiteSpace=wrap;html=1;" vertex="1" parent="NaQXFfpHUo3TirxvX6qb-14">
          <mxGeometry x="40" y="170" width="120" height="80" as="geometry" />
        </mxCell>
        <mxCell id="NaQXFfpHUo3TirxvX6qb-42" style="rounded=0;orthogonalLoop=1;jettySize=auto;html=1;" edge="1" parent="1" source="NaQXFfpHUo3TirxvX6qb-17" target="NaQXFfpHUo3TirxvX6qb-39">
          <mxGeometry relative="1" as="geometry" />
        </mxCell>
        <mxCell id="NaQXFfpHUo3TirxvX6qb-17" value="Отображение графической интерпретации числовых данных о компонентах устройствах&amp;nbsp;" style="swimlane;whiteSpace=wrap;html=1;startSize=70;" vertex="1" parent="1">
          <mxGeometry x="880" y="470" width="200" height="200" as="geometry" />
        </mxCell>
        <mxCell id="NaQXFfpHUo3TirxvX6qb-18" value="Отображение графиков с числовыми показателями некоторых компонентах устройства" style="ellipse;whiteSpace=wrap;html=1;" vertex="1" parent="NaQXFfpHUo3TirxvX6qb-17">
          <mxGeometry x="15" y="85" width="170" height="95" as="geometry" />
        </mxCell>
        <mxCell id="NaQXFfpHUo3TirxvX6qb-21" style="rounded=0;orthogonalLoop=1;jettySize=auto;html=1;" edge="1" parent="1" source="NaQXFfpHUo3TirxvX6qb-19" target="NaQXFfpHUo3TirxvX6qb-17">
          <mxGeometry relative="1" as="geometry" />
        </mxCell>
        <mxCell id="NaQXFfpHUo3TirxvX6qb-19" value="Открытие окна с графиками" style="ellipse;whiteSpace=wrap;html=1;" vertex="1" parent="1">
          <mxGeometry x="680" y="400" width="120" height="80" as="geometry" />
        </mxCell>
        <mxCell id="NaQXFfpHUo3TirxvX6qb-30" style="rounded=0;orthogonalLoop=1;jettySize=auto;html=1;" edge="1" parent="1" source="NaQXFfpHUo3TirxvX6qb-23" target="NaQXFfpHUo3TirxvX6qb-27">
          <mxGeometry relative="1" as="geometry" />
        </mxCell>
        <mxCell id="NaQXFfpHUo3TirxvX6qb-41" style="rounded=0;orthogonalLoop=1;jettySize=auto;html=1;" edge="1" parent="1" source="NaQXFfpHUo3TirxvX6qb-23" target="NaQXFfpHUo3TirxvX6qb-39">
          <mxGeometry relative="1" as="geometry" />
        </mxCell>
        <mxCell id="NaQXFfpHUo3TirxvX6qb-23" value="Выгрузка отчета о системе" style="swimlane;whiteSpace=wrap;html=1;" vertex="1" parent="1">
          <mxGeometry x="880" y="180" width="200" height="260" as="geometry" />
        </mxCell>
        <mxCell id="NaQXFfpHUo3TirxvX6qb-26" value="Формирование отчета о системе" style="ellipse;whiteSpace=wrap;html=1;" vertex="1" parent="NaQXFfpHUo3TirxvX6qb-23">
          <mxGeometry x="40" y="50" width="120" height="80" as="geometry" />
        </mxCell>
        <mxCell id="NaQXFfpHUo3TirxvX6qb-44" value="Помещение в отчет характеристик компонентов устройства" style="ellipse;whiteSpace=wrap;html=1;" vertex="1" parent="NaQXFfpHUo3TirxvX6qb-23">
          <mxGeometry x="20" y="150" width="160" height="80" as="geometry" />
        </mxCell>
        <mxCell id="NaQXFfpHUo3TirxvX6qb-27" value="Использование информации из базы данных" style="ellipse;whiteSpace=wrap;html=1;" vertex="1" parent="1">
          <mxGeometry x="600" y="-30" width="120" height="80" as="geometry" />
        </mxCell>
        <mxCell id="NaQXFfpHUo3TirxvX6qb-32" style="rounded=0;orthogonalLoop=1;jettySize=auto;html=1;endArrow=none;endFill=0;" edge="1" parent="1" source="NaQXFfpHUo3TirxvX6qb-31" target="NaQXFfpHUo3TirxvX6qb-27">
          <mxGeometry relative="1" as="geometry" />
        </mxCell>
        <mxCell id="NaQXFfpHUo3TirxvX6qb-31" value="База данных" style="shape=umlActor;verticalLabelPosition=bottom;verticalAlign=top;html=1;outlineConnect=0;" vertex="1" parent="1">
          <mxGeometry x="515" y="-20" width="30" height="60" as="geometry" />
        </mxCell>
        <mxCell id="NaQXFfpHUo3TirxvX6qb-34" style="rounded=0;orthogonalLoop=1;jettySize=auto;html=1;" edge="1" parent="1" source="NaQXFfpHUo3TirxvX6qb-33" target="NaQXFfpHUo3TirxvX6qb-31">
          <mxGeometry relative="1" as="geometry" />
        </mxCell>
        <mxCell id="NaQXFfpHUo3TirxvX6qb-33" value="Заполнение базы данных" style="ellipse;whiteSpace=wrap;html=1;" vertex="1" parent="1">
          <mxGeometry x="245" y="-30" width="120" height="80" as="geometry" />
        </mxCell>
        <mxCell id="NaQXFfpHUo3TirxvX6qb-36" style="rounded=0;orthogonalLoop=1;jettySize=auto;html=1;" edge="1" parent="1" source="NaQXFfpHUo3TirxvX6qb-35" target="NaQXFfpHUo3TirxvX6qb-33">
          <mxGeometry relative="1" as="geometry" />
        </mxCell>
        <mxCell id="NaQXFfpHUo3TirxvX6qb-35" value="Разработчик" style="shape=umlActor;verticalLabelPosition=bottom;verticalAlign=top;html=1;outlineConnect=0;" vertex="1" parent="1">
          <mxGeometry x="20" y="-20" width="30" height="60" as="geometry" />
        </mxCell>
        <mxCell id="NaQXFfpHUo3TirxvX6qb-39" value="Получение информации об аппаратном обеспечении устройства" style="ellipse;whiteSpace=wrap;html=1;" vertex="1" parent="1">
          <mxGeometry x="1450" y="270" width="150" height="80" as="geometry" />
        </mxCell>
      </root>
    </mxGraphModel>
  </diagram>
</mxfile>
